<?xml version="1.0" encoding="UTF-8"?>
<!DOCTYPE svg PUBLIC "-//W3C//DTD SVG 1.1//EN" "http://www.w3.org/Graphics/SVG/1.1/DTD/svg11.dtd">
<!-- Creator: CorelDRAW 2017 -->
<svg xmlns="http://www.w3.org/2000/svg" xml:space="preserve" width="124.013mm" height="120.045mm" version="1.1" style="shape-rendering:geometricPrecision; text-rendering:geometricPrecision; image-rendering:optimizeQuality; fill-rule:evenodd; clip-rule:evenodd"
viewBox="0 0 6862 6643"
 xmlns:xlink="http://www.w3.org/1999/xlink">
 <defs>
  <style type="text/css">
   <![CDATA[
    .str0 {stroke:#FEFEFE;stroke-width:11.0673}
    .fil0 {fill:#FEFEFE}
    .fil3 {fill:#201E1E}
    .fil4 {fill:#8C0404}
    .fil1 {fill:#A80F12}
    .fil5 {fill:#EB1C24}
    .fil2 {fill:white}
   ]]>
  </style>
 </defs>
 <g id="Camada_x0020_1">
  <metadata id="CorelCorpID_0Corel-Layer"/>
  <g id="_1696009869424">
   <rect class="fil0 str0" x="6" y="6" width="6851" height="6632"/>
   <g>
    <path class="fil1" d="M3734 3031c-187,19 -569,155 -771,213 -122,35 -688,218 -765,212l-5 -4c11,195 1131,2080 1237,2169 72,-60 502,-781 579,-916 258,-451 590,-1028 818,-1563 334,-652 352,-1252 0,-1783 -96,281 -280,1391 -558,1530 -133,66 -370,166 -535,143z"/>
    <path class="fil2" d="M2837 1474c-48,81 -133,133 -201,257 -50,92 -92,212 -106,338 -44,404 171,604 197,686l-269 353c-93,122 -168,213 -260,348 77,6 643,-177 765,-212 202,-58 584,-194 771,-213 48,-38 118,-59 172,-93 50,-31 99,-68 147,-114 541,-521 256,-1396 -429,-1541 -453,-96 -646,128 -788,191z"/>
    <path class="fil3" d="M4370 5833c-264,78 -602,118 -941,118 -339,0 -677,-40 -941,-118 -25,-7 -49,-15 -72,-23 -119,-41 -307,-133 -329,-243 -31,-155 175,-232 273,-284 -183,25 -840,316 -141,615 298,128 755,185 1210,182 455,2 912,-55 1210,-182 699,-299 42,-589 -141,-615 98,53 304,129 273,284 -22,110 -210,202 -329,243 -23,8 -47,16 -72,23z"/>
    <path class="fil4" d="M2182 3453l6 4c94,-135 170,-226 264,-348l273 -353c-27,-82 -245,-282 -201,-686 14,-126 57,-247 108,-338 69,-124 156,-176 205,-257 -56,-21 -312,229 -367,297 -250,308 -339,644 -354,1046 -5,133 23,534 65,636z"/>
    <path class="fil5" d="M2193 3453c-42,-102 -69,-503 -64,-636 15,-402 101,-738 348,-1046 54,-68 306,-319 361,-297 142,-63 335,-287 788,-191 684,145 969,1020 429,1541 -48,46 -98,83 -147,114 -54,34 -124,54 -172,93 165,23 402,-76 535,-143 542,-196 811,-1017 558,-1564 -188,-304 -539,-582 -935,-696 -976,-283 -2000,381 -2108,1404 -47,449 163,949 356,1350l51 70z"/>
    <path class="fil3" d="M4099 5628c-188,55 -428,84 -669,84 -241,0 -482,-29 -669,-84 -18,-5 -35,-11 -51,-17 -84,-29 -218,-95 -234,-173 -22,-110 124,-165 194,-202 -130,18 -598,225 -100,437 212,91 537,132 861,130 324,2 649,-39 861,-130 497,-213 30,-419 -100,-437 70,38 216,92 194,202 -15,78 -149,144 -234,173 -17,6 -34,11 -51,17z"/>
   </g>
  </g>
 </g>
</svg>
